<svg width="36" height="36" viewBox="0 0 36 36" fill="none" xmlns="http://www.w3.org/2000/svg">
<path id="Subtract" fill-rule="evenodd" clip-rule="evenodd" d="M5.10638 0C2.28621 0 0 2.28621 0 5.10638V30.8936C0 33.7138 2.28621 36 5.10638 36H30.8936C33.7138 36 36 33.7138 36 30.8936V5.10638C36 2.28621 33.7138 0 30.8936 0H5.10638ZM9.06383 9.00261V17.9899V24.2914C9.06383 25.9571 9.89838 27.5127 11.2878 28.4367L18.0535 32.9362L24.7387 28.4367C26.1116 27.5127 26.9362 25.9571 26.9362 24.2914V17.9899L18.0535 23.9684L9.06383 17.9899L15.8438 13.4146C17.225 12.4826 18.0535 10.9207 18.0535 9.24907V2.93617L9.06383 9.00261ZM23.458 17.3448C25.379 17.3448 26.9362 15.7802 26.9362 13.8502C26.9362 11.9201 25.379 10.3555 23.458 10.3555C21.5371 10.3555 19.9799 11.9201 19.9799 13.8502C19.9799 15.7802 21.5371 17.3448 23.458 17.3448Z" fill="#0149FF"/>
</svg>
