<svg width="36" height="36" viewBox="0 0 36 36" fill="none" xmlns="http://www.w3.org/2000/svg">
<g id="fa-brands:odnoklassniki-square" clip-path="url(#clip0_991_655)">
<path id="Vector" d="M14.8018 11.6598C14.8018 9.88393 16.2402 8.44554 18 8.44554C19.7598 8.44554 21.1982 9.88393 21.1982 11.6598C21.1982 13.4277 19.7598 14.858 18 14.858C16.2402 14.858 14.8018 13.4196 14.8018 11.6598ZM36 3.85714V32.1429C36 34.2723 34.2723 36 32.1429 36H3.85714C1.72768 36 0 34.2723 0 32.1429V3.85714C0 1.72768 1.72768 0 3.85714 0H32.1429C34.2723 0 36 1.72768 36 3.85714ZM11.483 11.6598C11.483 15.2438 14.408 18.1607 18 18.1607C21.592 18.1607 24.517 15.2518 24.517 11.6598C24.517 8.05982 21.592 5.14286 18 5.14286C14.408 5.14286 11.483 8.05179 11.483 11.6598ZM25.5054 18.9482C25.1357 18.217 24.1152 17.5982 22.7652 18.6589C22.7652 18.6589 20.9411 20.1054 18 20.1054C15.0589 20.1054 13.2348 18.6589 13.2348 18.6589C11.8848 17.5982 10.8643 18.217 10.4946 18.9482C9.85982 20.242 10.583 20.8527 12.2143 21.9214C13.6045 22.8134 15.525 23.1429 16.7625 23.2714L15.7259 24.308C14.2634 25.7545 12.8732 27.1607 11.8929 28.1411C10.4786 29.5554 12.7527 31.8214 14.175 30.4393L18.008 26.5902C19.4705 28.0527 20.8768 29.4589 21.8411 30.4393C23.2554 31.8214 25.5375 29.5795 24.1393 28.1411L20.3062 24.308L19.2616 23.2714C20.5071 23.1429 22.4036 22.7973 23.7777 21.9214C25.417 20.8527 26.1321 20.2339 25.5054 18.9482Z" fill="white"/>
</g>
<defs>
<clipPath id="clip0_991_655">
<rect width="36" height="36" fill="white"/>
</clipPath>
</defs>
</svg>
